<?xml version="1.0" encoding="UTF-8"?>
<!-- Generated by Pixelmator Pro 3.6.4 -->
<svg width="15" height="15" viewBox="0 0 15 15" xmlns="http://www.w3.org/2000/svg">
    <g id="g10">
        <path id="path2" fill="#000000" stroke="none" d="M 5.04873 0.675658 C 4.616824 0.726628 4.300272 0.782963 4.021276 0.86076 C 2.510946 1.273887 1.266198 2.376456 0.665285 3.83045 C 0.104612 5.187869 0.144851 6.682104 0.780639 7.996601 C 1.110604 8.680676 1.631038 9.354021 1.944907 9.501566 C 2.400958 9.713495 2.929439 9.372799 2.929439 8.868462 C 2.929439 8.669946 2.846277 8.503622 2.620934 8.251452 C 2.154154 7.722971 1.848332 7.089866 1.732978 6.411157 C 1.665912 6.014125 1.692739 5.246888 1.786631 4.892778 C 1.979782 4.16578 2.3017 3.613156 2.832864 3.108818 C 3.141368 2.811044 3.409633 2.628625 3.793251 2.443521 C 5.590625 1.582392 7.747473 2.304024 8.667621 4.069205 C 8.740052 4.208703 8.844676 4.447458 8.901011 4.603052 C 9.016365 4.919604 9.11294 5.048372 9.308774 5.144947 C 9.429493 5.203966 9.469733 5.206648 10.239653 5.222744 C 10.843248 5.236157 11.090052 5.249571 11.224183 5.281762 C 12.104092 5.493691 12.76134 6.239467 12.852551 7.124741 C 12.933029 7.889295 12.637938 8.581419 12.028977 9.058929 C 11.792904 9.244032 11.728521 9.319146 11.66682 9.480104 C 11.540735 9.799339 11.699013 10.193689 12.015565 10.343918 C 12.109457 10.389523 12.189936 10.405619 12.318704 10.405619 C 12.52795 10.405619 12.645987 10.35733 12.865964 10.188324 C 13.603691 9.622285 14.083885 8.817491 14.239479 7.891977 C 14.293133 7.57006 14.279718 6.958417 14.20997 6.641864 C 13.97658 5.571488 13.295187 4.69158 12.324069 4.203339 C 11.784857 3.932391 11.288567 3.825086 10.574983 3.825086 L 10.118934 3.825086 L 9.968705 3.521945 C 9.429493 2.446205 8.603238 1.646776 7.503352 1.137073 C 7.245818 1.019036 6.78172 0.858077 6.521503 0.796377 C 6.14325 0.70785 5.330408 0.640783 5.04873 0.675658 Z"/>
        <path id="path4" fill="#000000" stroke="none" d="M 5.244563 6.993291 C 5.083604 7.0228 4.989712 7.079135 4.868993 7.215951 C 4.783148 7.312526 4.59268 7.733701 3.790569 9.608871 C 2.72824 12.090321 2.736289 12.060811 2.835546 12.318346 C 2.862373 12.388094 2.926756 12.492718 2.977727 12.549053 C 3.313057 12.919258 3.895192 12.833414 4.123217 12.385411 C 4.155408 12.318346 4.608776 11.26943 5.12921 10.054192 C 6.035944 7.9349 6.076184 7.838325 6.076184 7.677366 C 6.076184 7.465437 6.006435 7.304478 5.858889 7.173028 C 5.679152 7.01207 5.467223 6.947686 5.244563 6.993291 Z"/>
        <path id="path6" fill="#000000" stroke="none" d="M 10.287939 6.993291 C 10.126981 7.0228 10.033089 7.079135 9.91237 7.215951 C 9.826525 7.312526 9.636057 7.733701 8.833945 9.608871 C 7.771617 12.090321 7.779665 12.060811 7.878923 12.318346 C 7.905749 12.388094 7.970133 12.492718 8.021103 12.549053 C 8.356434 12.919258 8.938568 12.833414 9.166594 12.385411 C 9.198785 12.318346 9.652153 11.26943 10.172585 10.054192 C 11.079321 7.9349 11.119561 7.838325 11.119561 7.677366 C 11.119561 7.465437 11.049812 7.304478 10.902266 7.173028 C 10.722529 7.01207 10.5106 6.947686 10.287939 6.993291 Z"/>
        <path id="path8" fill="#000000" stroke="none" d="M 7.173387 8.275597 C 6.996332 8.337297 6.864882 8.460699 6.765624 8.653849 C 6.671732 8.841635 4.879723 13.03193 4.834118 13.171427 C 4.793879 13.297512 4.812657 13.522854 4.874358 13.646255 C 4.949472 13.796484 5.102383 13.935982 5.255294 13.992317 C 5.638913 14.134498 5.987657 13.978904 6.172759 13.579189 C 6.328353 13.243858 8.007689 9.311098 8.055978 9.166235 C 8.128409 8.956989 8.120361 8.825539 8.023786 8.632389 C 7.929893 8.444603 7.787713 8.323884 7.586514 8.264866 C 7.414825 8.213896 7.347758 8.216578 7.173387 8.275597 Z"/>
    </g>
</svg>
